<svg width="19" height="17" viewBox="0 0 19 17" fill="none" xmlns="http://www.w3.org/2000/svg">
<g id="logout">
<g id="Union">
<path fill-rule="evenodd" clip-rule="evenodd" d="M0.854721 8.11241C0.897875 8.01037 0.955686 7.91469 1.02815 7.82969L6.64544 1.24099C7.00376 0.820712 7.58469 0.820713 7.94301 1.24099C8.30132 1.66126 8.30132 2.34266 7.94301 2.76294L3.4764 8.00196H17.0231C17.5754 8.00196 18.0231 8.44968 18.0231 9.00196C18.0231 9.55425 17.5754 10.002 17.0231 10.002H3.8272L7.80077 14.6627C8.15909 15.083 8.15909 15.7644 7.80077 16.1847C7.44246 16.6049 6.86152 16.6049 6.50321 16.1847L0.885921 9.59595C0.538331 9.18825 0.52793 8.53481 0.854721 8.11241Z" fill="white"/>
<path d="M1.02815 7.82969L1.40864 8.15408H1.40864L1.02815 7.82969ZM0.854721 8.11241L1.25019 8.41836C1.27657 8.38425 1.29843 8.34688 1.31523 8.30717L0.854721 8.11241ZM6.64544 1.24099L6.26496 0.916597V0.916598L6.64544 1.24099ZM7.94301 1.24099L8.32349 0.916598V0.916598L7.94301 1.24099ZM7.94301 2.76294L8.32349 3.08733V3.08733L7.94301 2.76294ZM3.4764 8.00196L3.09591 7.67757C2.96938 7.82598 2.94069 8.03442 3.02242 8.21149C3.10415 8.38857 3.28137 8.50196 3.4764 8.50196V8.00196ZM3.8272 10.002V9.50196C3.63217 9.50196 3.45495 9.61536 3.37322 9.79244C3.29149 9.96951 3.32018 10.1779 3.44671 10.3264L3.8272 10.002ZM7.80077 14.6627L7.42029 14.9871L7.80077 14.6627ZM7.80077 16.1847L8.18126 16.509L7.80077 16.1847ZM6.50321 16.1847L6.12273 16.509L6.50321 16.1847ZM0.885921 9.59595L0.505433 9.92034H0.505433L0.885921 9.59595ZM0.647665 7.5053C0.540121 7.63144 0.456064 7.7714 0.394211 7.91765L1.31523 8.30717C1.33969 8.24934 1.37125 8.19794 1.40864 8.15408L0.647665 7.5053ZM6.26496 0.916598L0.647664 7.5053L1.40864 8.15408L7.02593 1.56538L6.26496 0.916598ZM8.32349 0.916598C7.76556 0.262176 6.82289 0.262176 6.26496 0.916597L7.02593 1.56538C7.18462 1.37925 7.40383 1.37925 7.56252 1.56538L8.32349 0.916598ZM8.32349 3.08733C8.84115 2.48015 8.84115 1.52378 8.32349 0.916598L7.56252 1.56538C7.76148 1.79875 7.76148 2.20518 7.56252 2.43855L8.32349 3.08733ZM3.85689 8.32635L8.32349 3.08733L7.56252 2.43855L3.09591 7.67757L3.85689 8.32635ZM17.0231 7.50196H3.4764V8.50196H17.0231V7.50196ZM18.5231 9.00196C18.5231 8.17354 17.8515 7.50196 17.0231 7.50196V8.50196C17.2992 8.50196 17.5231 8.72582 17.5231 9.00196H18.5231ZM17.0231 10.502C17.8515 10.502 18.5231 9.83039 18.5231 9.00196H17.5231C17.5231 9.27811 17.2992 9.50196 17.0231 9.50196V10.502ZM3.8272 10.502H17.0231V9.50196H3.8272V10.502ZM3.44671 10.3264L7.42029 14.9871L8.18126 14.3383L4.20769 9.67757L3.44671 10.3264ZM7.42029 14.9871C7.61925 15.2205 7.61925 15.6269 7.42029 15.8603L8.18126 16.509C8.69892 15.9019 8.69892 14.9455 8.18126 14.3383L7.42029 14.9871ZM7.42029 15.8603C7.2616 16.0464 7.04239 16.0464 6.8837 15.8603L6.12273 16.509C6.68066 17.1635 7.62333 17.1635 8.18126 16.509L7.42029 15.8603ZM6.8837 15.8603L1.26641 9.27156L0.505433 9.92034L6.12273 16.509L6.8837 15.8603ZM1.26641 9.27156C1.07474 9.04675 1.06595 8.65651 1.25019 8.41836L0.459253 7.80646C-0.0100846 8.41312 0.00191665 9.32975 0.505433 9.92034L1.26641 9.27156Z" fill="white"/>
</g>
</g>
</svg>
