<svg width="30" height="30" viewBox="0 0 30 30" fill="none" xmlns="http://www.w3.org/2000/svg">
<g id="Group 2611476">
<g id="Group 2611996">
<path id="Subtract" fill-rule="evenodd" clip-rule="evenodd" d="M4 0C1.79086 0 0 1.79086 0 4V26C0 28.2091 1.79086 30 4 30H26C28.2091 30 30 28.2091 30 26V4C30 1.79086 28.2091 0 26 0H4ZM11.9401 25.7143C11.9401 26.8189 12.8356 27.7143 13.9401 27.7143H15.7742C16.8787 27.7143 17.7742 26.8189 17.7742 25.7143V17.7742H25.7143C26.8189 17.7742 27.7143 16.8787 27.7143 15.7742V13.9401C27.7143 12.8356 26.8189 11.9401 25.7143 11.9401H17.7742V4C17.7742 2.89543 16.8787 2 15.7742 2H13.9401C12.8356 2 11.9401 2.89543 11.9401 4V11.9401H4C2.89543 11.9401 2 12.8356 2 13.9401V15.7742C2 16.8787 2.89543 17.7742 4 17.7742H11.9401V25.7143Z" fill="url(#paint0_linear_9297_35658)"/>
</g>
</g>
<defs>
<linearGradient id="paint0_linear_9297_35658" x1="0.5" y1="14.5" x2="30" y2="15" gradientUnits="userSpaceOnUse">
<stop stop-color="#1C82FD"/>
<stop offset="1" stop-color="#535AFF"/>
</linearGradient>
</defs>
</svg>
